<?xml version="1.0" encoding="UTF-8" standalone="no"?>
<svg width="112px" height="101px" viewBox="0 0 112 101" version="1.1" xmlns="http://www.w3.org/2000/svg" xmlns:xlink="http://www.w3.org/1999/xlink">
    <!-- Generator: sketchtool 3.6.1 (26313) - http://www.bohemiancoding.com/sketch -->
    <title>3A535CDB-D2A2-4D19-8CCA-E20AB31CF129</title>
    <desc>Created with sketchtool.</desc>
    <defs></defs>
    <g id="Page-1" stroke="none" stroke-width="1" fill="none" fill-rule="evenodd">
        <g id="wait-list-email-confirm" transform="translate(-663.000000, -105.000000)">
            <g id="brand" transform="translate(663.000000, 106.000000)">
                <g id="logo" transform="translate(24.965116, 0.000000)" stroke="#2BB673" stroke-width="2">
                    <path d="M34.6225709,8.04084557 C27.9422721,7.47806076 21.6502266,9.00844051 16.3102798,12.0504405 L3.41207442,0.591351899 C2.11269387,-0.562850633 0.0748515504,0.371174684 0.0748515504,2.12173165 L0.0748515504,40.6764405 L0.0816801268,40.6764405 C0.366529316,58.2165671 14.5016826,72.3464152 31.8989444,72.3464152 C50.216113,72.3464152 64.9190136,56.6842127 63.6469474,37.8694278 C62.584616,22.1558835 50.1312436,9.34709873 34.6225709,8.04084557 L34.6225709,8.04084557 Z" id="Stroke-1"></path>
                    <path d="M0.0746564482,41.1631013 L10.4189743,41.1631013 C11.5320322,41.1631013 12.4343798,40.4472785 12.4343798,39.5655823 L12.4343798,35.754443 C12.4343798,34.8717595 13.3367274,34.1569241 14.4497854,34.1569241 L14.4497854,34.1569241 C15.5628434,34.1569241 16.465191,34.8717595 16.465191,35.754443 L16.465191,41.1631013 L16.465191,50.2584937 C16.465191,51.1411772 17.3685141,51.857 18.4815721,51.857 L18.4815721,51.857 C19.59463,51.857 20.4969776,51.1411772 20.4969776,50.2584937 L20.4969776,41.1631013 L20.4969776,32.0677089 C20.4969776,31.1850253 21.3993252,30.4692025 22.5123832,30.4692025 L22.5123832,30.4692025 C23.6254412,30.4692025 24.5277888,31.1850253 24.5277888,32.0677089 L24.5277888,41.1631013 L24.5277888,52.1028481 C24.5277888,52.9855316 25.4311119,53.7003671 26.5441698,53.7003671 L26.5441698,53.7003671 C27.6572278,53.7003671 28.5595754,52.9855316 28.5595754,52.1028481 L28.5595754,41.1631013 L28.5595754,27.1507468 C28.5595754,26.2680633 29.461923,25.5522405 30.574981,25.5522405 L30.574981,25.5522405 C31.6880389,25.5522405 32.5903865,26.2680633 32.5903865,27.1507468 L32.5903865,41.1631013 L32.5903865,50.2584937 C32.5903865,51.1411772 33.4937097,51.857 34.6067676,51.857 L34.6067676,51.857 C35.7198256,51.857 36.6221732,51.1411772 36.6221732,50.2584937 L36.6221732,41.1631013 L36.6221732,30.2233544 C36.6221732,29.3406709 37.5245208,28.6258354 38.6375788,28.6258354 L38.6375788,28.6258354 C39.7506367,28.6258354 40.6529843,29.3406709 40.6529843,30.2233544 L40.6529843,41.1631013 L40.6529843,50.2584937 C40.6529843,51.1411772 41.5563074,51.857 42.6693654,51.857 L42.6693654,51.857 C43.7824234,51.857 44.684771,51.1411772 44.684771,50.2584937 L44.684771,41.1631013 L44.684771,32.0677089 C44.684771,31.1850253 45.5871186,30.4692025 46.7001765,30.4692025 L46.7001765,30.4692025 C47.8132345,30.4692025 48.7155821,31.1850253 48.7155821,32.0677089 L48.7155821,41.1631013 L48.7155821,46.5717595 C48.7155821,47.454443 49.6189052,48.1692785 50.7319632,48.1692785 L50.7319632,48.1692785 C51.8450211,48.1692785 52.7473687,47.454443 52.7473687,46.5717595 L52.7473687,42.7606203 C52.7473687,41.8789241 53.6497163,41.1631013 54.7627743,41.1631013 L63.6818707,41.1631013" id="Stroke-3"></path>
                </g>
                <text id="BEATTHREAD" font-family="Gotham-Black, Gotham" font-size="15.7674419" font-weight="700" letter-spacing="0.0278892443" fill="#FFFFFF">
                    <tspan x="0" y="99.9113924">BEAT</tspan>
                    <tspan x="43.4247198" y="99.9113924" font-family="Gotham-Light, Gotham" font-weight="normal">THREAD</tspan>
                </text>
            </g>
        </g>
    </g>
</svg>