<?xml version="1.0" encoding="UTF-8" standalone="no"?>
<svg width="41px" height="46px" viewBox="0 0 41 46" version="1.1" xmlns="http://www.w3.org/2000/svg" xmlns:xlink="http://www.w3.org/1999/xlink">
    <!-- Generator: sketchtool 3.6.1 (26313) - http://www.bohemiancoding.com/sketch -->
    <title>4B8F3C93-3A96-41C1-B030-54938C64F005</title>
    <desc>Created with sketchtool.</desc>
    <defs></defs>
    <g id="Page-1" stroke="none" stroke-width="1" fill="none" fill-rule="evenodd">
        <g id="home:-banner-1" transform="translate(-29.000000, -12.000000)" stroke="#2BB673" stroke-width="1.5">
            <g id="logo" transform="translate(30.000000, 13.000000)">
                <path d="M21.3703455,5.23873514 C17.3238,4.89981622 13.5124364,5.82143784 10.2778,7.65338378 L2.4648,0.752518919 C1.67770909,0.0574378378 0.4433,0.619924324 0.4433,1.67414054 L0.4433,24.8924649 L0.447436364,24.8924649 C0.619981818,35.4554378 9.18225455,43.9646811 19.7205273,43.9646811 C30.8160273,43.9646811 39.7222091,34.532627 38.9516636,23.2020324 C38.3081636,13.7390595 30.7646182,6.02538378 21.3703455,5.23873514 L21.3703455,5.23873514 Z" id="Stroke-1"></path>
                <path d="M0.443181818,25.1855405 L6.70918182,25.1855405 C7.38340909,25.1855405 7.93,24.7544595 7.93,24.2234865 L7.93,21.9283514 C7.93,21.3967838 8.47659091,20.9662973 9.15081818,20.9662973 L9.15081818,20.9662973 C9.82504545,20.9662973 10.3716364,21.3967838 10.3716364,21.9283514 L10.3716364,25.1855405 L10.3716364,30.6629459 C10.3716364,31.1945135 10.9188182,31.6255946 11.5930455,31.6255946 L11.5930455,31.6255946 C12.2672727,31.6255946 12.8138636,31.1945135 12.8138636,30.6629459 L12.8138636,25.1855405 L12.8138636,19.7081351 C12.8138636,19.1765676 13.3604545,18.7454865 14.0346818,18.7454865 L14.0346818,18.7454865 C14.7089091,18.7454865 15.2555,19.1765676 15.2555,19.7081351 L15.2555,25.1855405 L15.2555,31.7736486 C15.2555,32.3052162 15.8026818,32.7357027 16.4769091,32.7357027 L16.4769091,32.7357027 C17.1511364,32.7357027 17.6977273,32.3052162 17.6977273,31.7736486 L17.6977273,25.1855405 L17.6977273,16.7470541 C17.6977273,16.2154865 18.2443182,15.7844054 18.9185455,15.7844054 L18.9185455,15.7844054 C19.5927727,15.7844054 20.1393636,16.2154865 20.1393636,16.7470541 L20.1393636,25.1855405 L20.1393636,30.6629459 C20.1393636,31.1945135 20.6865455,31.6255946 21.3607727,31.6255946 L21.3607727,31.6255946 C22.035,31.6255946 22.5815909,31.1945135 22.5815909,30.6629459 L22.5815909,25.1855405 L22.5815909,18.5974324 C22.5815909,18.0658649 23.1281818,17.6353784 23.8024091,17.6353784 L23.8024091,17.6353784 C24.4766364,17.6353784 25.0232273,18.0658649 25.0232273,18.5974324 L25.0232273,25.1855405 L25.0232273,30.6629459 C25.0232273,31.1945135 25.5704091,31.6255946 26.2446364,31.6255946 L26.2446364,31.6255946 C26.9188636,31.6255946 27.4654545,31.1945135 27.4654545,30.6629459 L27.4654545,25.1855405 L27.4654545,19.7081351 C27.4654545,19.1765676 28.0120455,18.7454865 28.6862727,18.7454865 L28.6862727,18.7454865 C29.3605,18.7454865 29.9070909,19.1765676 29.9070909,19.7081351 L29.9070909,25.1855405 L29.9070909,28.4427297 C29.9070909,28.9742973 30.4542727,29.4047838 31.1285,29.4047838 L31.1285,29.4047838 C31.8027273,29.4047838 32.3493182,28.9742973 32.3493182,28.4427297 L32.3493182,26.1475946 C32.3493182,25.6166216 32.8959091,25.1855405 33.5701364,25.1855405 L38.9728182,25.1855405" id="Stroke-3"></path>
            </g>
        </g>
    </g>
</svg>