<?xml version="1.0" encoding="utf-8"?>
<!-- Generator: Adobe Illustrator 15.0.0, SVG Export Plug-In  -->
<!DOCTYPE svg PUBLIC "-//W3C//DTD SVG 1.1//EN" "http://www.w3.org/Graphics/SVG/1.1/DTD/svg11.dtd" [
	<!ENTITY ns_flows "http://ns.adobe.com/Flows/1.0/">
]>
<svg version="1.1"
	 xmlns="http://www.w3.org/2000/svg" xmlns:xlink="http://www.w3.org/1999/xlink" xmlns:a="http://ns.adobe.com/AdobeSVGViewerExtensions/3.0/"
	 x="0px" y="0px" width="27px" height="27px" viewBox="0 -1 27 27" enable-background="new 0 -1 27 27" xml:space="preserve">
<defs>
</defs>
<path id="Fill-1_1_" fill="#558DCA" d="M1.892,4.193c0,0-1.057-3.043,3.165-3.971c1.242-0.273,2.809-0.262,4.281-0.142
	C13.025,0,16.697,0.496,16.697,0.496l2.373,10.669c-0.721,0.451-1.063,0.968-1.221,1.301c-0.035,0.106-0.076,0.222-0.125,0.345
	c-0.198,0.5-0.52,1.112-1.027,1.665c-2.374,1.883-4.857,8.957-4.857,8.957S12.226,26,11.066,26s-3.919-0.799-2.264-5.99
	c1.655-5.193,0-4.395,0-4.395c-0.38,0.092-0.735,0.166-1.067,0.227c-0.001,0.002-4.784,1.107-6.547-0.559
	c-1.411-1.332-0.316-3.094-0.316-3.094s-1.986-1.831,0.037-4.016C0.909,8.174-0.388,5.963,1.892,4.193z"/>
<path id="Fill-4_1_" fill="#558DCA" d="M19.279,0.168C20.02,0.059,20.724,0,21.367,0c4.541,0,4.825,2.814,4.394,6.654l-0.335,2.993
	c-0.063,0.56-0.561,1.018-1.105,1.018h-2.357c-0.546,0-1.084-0.451-1.195-1.003l-1.762-8.659
	C18.934,0.655,19.049,0.348,19.279,0.168"/>
</svg>
