<?xml version="1.0" encoding="utf-8"?>
<!-- Generator: Adobe Illustrator 15.0.0, SVG Export Plug-In  -->
<!DOCTYPE svg PUBLIC "-//W3C//DTD SVG 1.1//EN" "http://www.w3.org/Graphics/SVG/1.1/DTD/svg11.dtd" [
	<!ENTITY ns_flows "http://ns.adobe.com/Flows/1.0/">
]>
<svg version="1.1"
	 xmlns="http://www.w3.org/2000/svg" xmlns:xlink="http://www.w3.org/1999/xlink" xmlns:a="http://ns.adobe.com/AdobeSVGViewerExtensions/3.0/"
	 x="0px" y="0px" width="22px" height="26px" viewBox="0.023 0.007 22 26" enable-background="new 0.023 0.007 22 26"
	 xml:space="preserve">
<defs>
</defs>
<path id="Fill-3_1_" fill="#EF4023" d="M8.014,25.429c-1.538-0.83-2.636-2.287-2.699-4c-0.094-3.201,2.354-4.771,3.797-6.914
	c2.071-3.086,1.506-5,1.506-5s1.726,0.886,2.73,4.171c0.313,0.972,0.376,1.943,0.282,2.857c-0.156,2.314-1.256,4.4-1.256,4.4
	s1.915-0.371,2.448-3.543c0.879,0.828,1.694,2.029,1.789,3.285c0.157,2.172-1.255,4.172-3.39,5.029
	c3.703-0.771,6.34-3.629,7.25-5.715c1.16-2.629,0.847-4.971,0.658-7c-0.251-2.771,0.816-4.828,0.816-4.828s-2.04,0.542-3.547,2.8
	c-0.689,1.028-0.973,2.543-0.973,2.543s0.157-1.343-0.815-3.801c-0.974-2.399-1.852-3.257-2.386-5.028
	C13.537,2.314,15.074,0,15.074,0s-6.088,1.028-8.85,5.857c-2.448,4.285-1.443,6.856-1.443,6.856S3.746,11.828,3.212,10.6
	C2.679,9.371,2.804,8.257,2.804,8.257s-4.331,4.343-2.228,9.801C1.988,21.886,4.718,24.4,8.014,25.429"/>
</svg>
