<?xml version="1.0" encoding="utf-8"?>
<!-- Generator: Adobe Illustrator 15.0.0, SVG Export Plug-In  -->
<!DOCTYPE svg PUBLIC "-//W3C//DTD SVG 1.1//EN" "http://www.w3.org/Graphics/SVG/1.1/DTD/svg11.dtd" [
	<!ENTITY ns_flows "http://ns.adobe.com/Flows/1.0/">
]>
<svg version="1.1"
	 xmlns="http://www.w3.org/2000/svg" xmlns:xlink="http://www.w3.org/1999/xlink" xmlns:a="http://ns.adobe.com/AdobeSVGViewerExtensions/3.0/"
	 x="0px" y="0px" width="28px" height="28px" viewBox="-0.181 -1.532 28 28" enable-background="new -0.181 -1.532 28 28"
	 xml:space="preserve">
<defs>
</defs>
<path id="Stroke-1_1_" fill="none" stroke="#2DB674" stroke-width="2" d="M4.46,13.234l18.721-8.823"/>
<path id="Stroke-2_1_" fill="none" stroke="#2DB674" stroke-width="2" d="M4.46,13.234l18.721,8.824"/>
<defs>
	<filter id="Adobe_OpacityMaskFilter" filterUnits="userSpaceOnUse" x="0" y="8.823" width="8.92" height="8.823">
		<feColorMatrix  type="matrix" values="1 0 0 0 0  0 1 0 0 0  0 0 1 0 0  0 0 0 1 0"/>
	</filter>
</defs>
<mask maskUnits="userSpaceOnUse" x="0" y="8.823" width="8.92" height="8.823" id="mask-2_1_">
	<g filter="url(#Adobe_OpacityMaskFilter)">
		<path id="path-1_1_" fill="#FFFFFF" d="M0,8.823v8.823h8.92V8.823H0L0,8.823z"/>
	</g>
</mask>
<path id="Fill-5_1_" mask="url(#mask-2_1_)" fill="#2DB674" d="M4.46,8.823C1.997,8.823,0,10.798,0,13.234
	c0,2.437,1.997,4.412,4.46,4.412c2.464,0,4.46-1.975,4.46-4.412C8.92,10.798,6.924,8.823,4.46,8.823 M4.46,10.501
	c1.525,0,2.763,1.226,2.763,2.732c0,1.507-1.238,2.734-2.763,2.734c-1.523,0-2.764-1.227-2.764-2.734
	C1.696,11.727,2.937,10.501,4.46,10.501"/>
<path id="Fill-10_1_" fill="#2DB674" d="M23.181,0c-2.465,0-4.461,1.975-4.461,4.411s1.996,4.412,4.461,4.412
	c2.463,0,4.459-1.976,4.459-4.412S25.644,0,23.181,0 M23.181,1.678c1.523,0,2.764,1.226,2.764,2.733c0,1.507-1.24,2.733-2.764,2.733
	c-1.525,0-2.764-1.226-2.764-2.733C20.417,2.904,21.655,1.678,23.181,1.678"/>
<path id="Fill-14_1_" fill="#2DB674" d="M23.181,17.646c-2.465,0-4.461,1.975-4.461,4.412c0,2.436,1.996,4.41,4.461,4.41
	c2.463,0,4.459-1.975,4.459-4.41C27.64,19.62,25.644,17.646,23.181,17.646 M23.181,19.323c1.523,0,2.762,1.227,2.762,2.734
	c0,1.506-1.238,2.732-2.762,2.732c-1.525,0-2.764-1.227-2.764-2.732C20.417,20.55,21.655,19.323,23.181,19.323"/>
</svg>
