<?xml version="1.0" encoding="UTF-8" standalone="no"?>
<svg width="30px" height="29px" viewBox="0 0 30 29" version="1.1" xmlns="http://www.w3.org/2000/svg" xmlns:xlink="http://www.w3.org/1999/xlink">
    <!-- Generator: sketchtool 3.6.1 (26313) - http://www.bohemiancoding.com/sketch -->
    <title>A5C0F650-1DEB-49FE-8969-E9538898E5BB</title>
    <desc>Created with sketchtool.</desc>
    <defs></defs>
    <g id="Page-1" stroke="none" stroke-width="1" fill="none" fill-rule="evenodd">
        <g id="other-users-beat---beat-playing-/-charting-/-rated" transform="translate(-205.000000, -95.000000)">
            <g id="beat">
                <g id="name-/-title" transform="translate(194.000000, 87.000000)">
                    <g id="verified-crown" transform="translate(11.000000, 8.000000)">
                        <g id="Group-3" transform="translate(0.000000, 0.197627)" fill="#8747A6">
                            <path d="M24.7457742,24.0956666 L24.7457742,24.0956666 C23.3264194,24.0072772 22.0596452,24.9731548 21.7786774,26.3572804 L21.7786774,26.3572804 C21.3541613,28.4501218 18.8341613,29.3368973 17.1767419,27.9764703 L17.1767419,27.9764703 C16.0806129,27.0768848 14.4838387,27.1188377 13.4373871,28.0747874 L13.4373871,28.0747874 C11.8548065,29.5204013 9.29093548,28.7671705 8.75545161,26.6993086 L8.75545161,26.6993086 C8.40158065,25.3321564 7.08480645,24.4341721 5.67222581,24.5968597 L5.67222581,24.5968597 C3.53577419,24.8428126 1.90770968,22.7374813 2.69867742,20.751924 L2.69867742,20.751924 C3.22190323,19.4392144 2.68835484,17.9446022 1.449,17.2518989 L1.449,17.2518989 C-0.424870968,16.204037 -0.495516129,13.550756 1.31996774,12.4061783 L1.31996774,12.4061783 C2.52029032,11.6494248 2.97351613,10.128552 2.38125806,8.84530549 L2.38125806,8.84530549 C1.48545161,6.90426311 2.99932258,4.71598681 5.14577419,4.84953155 L5.14577419,4.84953155 C6.56512903,4.93792088 7.83190323,3.97204333 8.11287097,2.58791774 L8.11287097,2.58791774 C8.5373871,0.495076295 11.0573871,-0.391699215 12.7148065,0.968727786 L12.7148065,0.968727786 C13.8109355,1.86831334 15.4077097,1.82636044 16.4541613,0.870410675 L16.4541613,0.870410675 C18.0367419,-0.57520314 20.6006129,0.17802763 21.1360968,2.24588948 L21.1360968,2.24588948 C21.4899677,3.61336201 22.8067419,4.51102606 24.2193226,4.34833846 L24.2193226,4.34833846 C26.3557742,4.10238556 27.9838387,6.2077168 27.192871,8.1932741 L27.192871,8.1932741 C26.6696452,9.50598367 27.2031935,11.0005959 28.4422258,11.6936195 L28.4425484,11.6936195 C30.3164194,12.7411611 30.3870645,15.3944421 28.5715806,16.5390198 L28.5715806,16.5390198 C27.3709355,17.2960936 26.9177097,18.8166462 27.5102903,20.1002129 L27.5102903,20.1002129 C28.4060968,22.0412553 26.8922258,24.2292113 24.7457742,24.0956666" id="Fill-1"></path>
                        </g>
                        <path d="M9.97158065,19.2749896 C9.97158065,19.2749896 11.6570645,20.3161262 14.9512581,20.3161262 C18.245129,20.3161262 19.932871,19.2749896 19.932871,19.2749896 L20.1248065,18.5960571 C20.1248065,18.5960571 17.8622258,19.3841953 14.9512581,19.3841953 C12.0402903,19.3841953 9.77996774,18.5960571 9.77996774,18.5960571 L9.97158065,19.2749896 Z" id="Fill-4" fill="#FFFFFF"></path>
                        <path d="M18.0557419,13.4349212 L14.9457419,9.34851617 L11.8357419,13.4349212 L7.93025806,11.198287 L8.87380645,14.5548396 L8.97606452,14.9186449 L9.55025806,16.9608867 C9.55025806,16.9608867 11.161871,17.8025068 14.9447742,17.8025068 C18.7276774,17.8025068 20.3412258,16.9608867 20.3412258,16.9608867 L20.9154194,14.9186449 L21.0176774,14.5548396 L21.9615484,11.198287 L18.0557419,13.4349212 Z" id="Fill-6" fill="#FFFFFF"></path>
                        <path d="M7.16158065,11.1981589 C7.16158065,10.7767083 7.50577419,10.4353206 7.92996774,10.4353206 C8.35448387,10.4353206 8.69867742,10.7767083 8.69867742,11.1981589 C8.69867742,11.6196094 8.35448387,11.9609972 7.92996774,11.9609972 C7.50577419,11.9609972 7.16158065,11.6196094 7.16158065,11.1981589" id="Fill-8" fill="#FFFFFF"></path>
                        <path d="M14.1837742,9.3486763 C14.1837742,8.92722575 14.5279677,8.58583799 14.9521613,8.58583799 C15.3766774,8.58583799 15.720871,8.92722575 15.720871,9.3486763 C15.720871,9.77012684 15.3766774,10.1115146 14.9521613,10.1115146 C14.5279677,10.1115146 14.1837742,9.77012684 14.1837742,9.3486763" id="Fill-10" fill="#FFFFFF"></path>
                        <path d="M21.192871,11.1981589 C21.192871,10.7767083 21.5370645,10.4353206 21.9612581,10.4353206 C22.3857742,10.4353206 22.7299677,10.7767083 22.7299677,11.1981589 C22.7299677,11.6196094 22.3857742,11.9609972 21.9612581,11.9609972 C21.5370645,11.9609972 21.192871,11.6196094 21.192871,11.1981589" id="Fill-12" fill="#FFFFFF"></path>
                    </g>
                </g>
            </g>
        </g>
    </g>
</svg>